<?xml version="1.0" encoding="UTF-8" standalone="no"?>
<svg
   xmlns:dc="http://purl.org/dc/elements/1.1/"
   xmlns:cc="http://creativecommons.org/ns#"
   xmlns:rdf="http://www.w3.org/1999/02/22-rdf-syntax-ns#"
   xmlns:svg="http://www.w3.org/2000/svg"
   xmlns="http://www.w3.org/2000/svg"
   xmlns:sodipodi="http://sodipodi.sourceforge.net/DTD/sodipodi-0.dtd"
   xmlns:inkscape="http://www.inkscape.org/namespaces/inkscape"
   sodipodi:docname="earth.svg"
   inkscape:version="1.0beta2 (2b71d25, 2019-12-03)"
   id="svg964"
   version="1.1"
   viewBox="0 0 130.19835 149.37346"
   height="149.37346mm"
   width="130.19835mm">
  <defs
     id="defs958" />
  <sodipodi:namedview
     fit-margin-bottom="0"
     fit-margin-right="0"
     fit-margin-left="0"
     fit-margin-top="0"
     inkscape:window-maximized="0"
     inkscape:window-y="25"
     inkscape:window-x="0"
     inkscape:window-height="940"
     inkscape:window-width="1600"
     showgrid="false"
     inkscape:document-rotation="0"
     inkscape:current-layer="layer1"
     inkscape:document-units="mm"
     inkscape:cy="433.37091"
     inkscape:cx="405.41385"
     inkscape:zoom="0.81529412"
     inkscape:pageshadow="2"
     inkscape:pageopacity="0.0"
     borderopacity="1.0"
     bordercolor="#666666"
     pagecolor="#ffffff"
     id="base" />
  <metadata
     id="metadata961">
    <rdf:RDF>
      <cc:Work
         rdf:about="">
        <dc:format>image/svg+xml</dc:format>
        <dc:type
           rdf:resource="http://purl.org/dc/dcmitype/StillImage" />
        <dc:title></dc:title>
      </cc:Work>
    </rdf:RDF>
  </metadata>
  <g
     transform="translate(-50.416308,-76.227348)"
     id="layer1"
     inkscape:groupmode="layer"
     inkscape:label="Layer 1">
    <ellipse
       ry="15.119047"
       rx="59.720234"
       cy="167.06549"
       cx="110.36904"
       id="path1529"
       style="fill:none;stroke:#cccccc;stroke-width:0.465;stroke-miterlimit:4;stroke-dasharray:0.93, 0.465;stroke-dashoffset:0" />
    <path
       transform="scale(1,-1)"
       id="path1565"
       d="M 129.30859 -181.25977 L 128.96484 -180.9668 L 129.26172 -180.61719 L 129.29297 -180.20508 L 129.29688 -180.13867 L 129.75977 -180.17188 L 129.75586 -180.23828 L 129.69141 -181.09961 L 129.46094 -181.08203 L 129.30859 -181.25977 z M 128.61133 -180.66602 L 127.90234 -180.06445 L 128.20312 -179.70898 L 128.91211 -180.3125 L 128.61133 -180.66602 z M 127.54688 -179.76367 L 126.83984 -179.16016 L 127.14062 -178.80664 L 127.84961 -179.4082 L 127.54688 -179.76367 z M 129.79297 -179.70703 L 129.32812 -179.67383 L 129.35156 -179.34375 L 129.39062 -178.74805 L 129.85547 -178.77734 L 129.81641 -179.375 L 129.79297 -179.70703 z M 126.48438 -178.85938 L 125.77539 -178.25781 L 126.07617 -177.90234 L 126.78516 -178.50586 L 126.48438 -178.85938 z M 129.88477 -178.3125 L 129.41992 -178.28516 L 129.46094 -177.61914 L 129.47461 -177.35742 L 129.93945 -177.38281 L 129.92383 -177.64648 L 129.88477 -178.3125 z M 125.42188 -177.95703 L 124.71289 -177.35352 L 125.01367 -177 L 125.72266 -177.60156 L 125.42188 -177.95703 z M 124.35742 -177.05273 L 123.65039 -176.45117 L 123.95117 -176.09766 L 124.66016 -176.69922 L 124.35742 -177.05273 z M 129.96484 -176.91992 L 129.50195 -176.89258 L 129.50977 -176.75391 L 129.54883 -175.96484 L 130.01367 -175.99023 L 129.97266 -176.7793 L 129.96484 -176.91992 z M 123.29492 -176.15039 L 122.58594 -175.54883 L 122.88672 -175.19336 L 123.5957 -175.79492 L 123.29492 -176.15039 z M 130.03516 -175.52344 L 129.57227 -175.50195 L 129.59375 -175.02148 L 129.61328 -174.57422 L 130.07812 -174.59375 L 130.05859 -175.04297 L 130.03516 -175.52344 z M 122.23242 -175.24805 L 121.52344 -174.64453 L 121.82422 -174.29102 L 122.5332 -174.89258 L 122.23242 -175.24805 z M 121.16797 -174.34375 L 120.46094 -173.74219 L 120.76172 -173.38672 L 121.4707 -173.99023 L 121.16797 -174.34375 z M 130.09766 -174.12891 L 129.63281 -174.11133 L 129.66406 -173.28711 L 129.66797 -173.18164 L 130.13281 -173.19727 L 130.12891 -173.30273 L 130.09766 -174.12891 z M 120.10547 -173.44141 L 119.39648 -172.83789 L 119.69727 -172.48438 L 120.40625 -173.08594 L 120.10547 -173.44141 z M 130.14844 -172.73242 L 129.68359 -172.7168 L 129.69336 -172.41797 L 129.71094 -171.78906 L 130.17578 -171.80273 L 130.1582 -172.43164 L 130.14844 -172.73242 z M 119.04297 -172.53711 L 118.33398 -171.93555 L 118.63477 -171.58008 L 119.34375 -172.18359 L 119.04297 -172.53711 z M 117.97852 -171.63477 L 117.27148 -171.0332 L 117.57227 -170.67773 L 118.28125 -171.2793 L 117.97852 -171.63477 z M 130.18945 -171.33594 L 129.72461 -171.32617 L 129.74023 -170.67969 L 129.74609 -170.39648 L 130.21094 -170.40625 L 130.20508 -170.69141 L 130.18945 -171.33594 z M 116.91602 -170.73047 L 116.20703 -170.12891 L 116.50781 -169.77539 L 117.2168 -170.37695 L 116.91602 -170.73047 z M 130.2207 -169.94141 L 129.75586 -169.93164 L 129.75781 -169.81055 L 129.77148 -169.00195 L 130.23633 -169.00977 L 130.22266 -169.82031 L 130.2207 -169.94141 z M 115.85352 -169.82812 L 115.14453 -169.22656 L 115.44531 -168.87109 L 116.1543 -169.47461 L 115.85352 -169.82812 z M 114.78906 -168.92578 L 114.08203 -168.32227 L 114.38281 -167.96875 L 115.0918 -168.57031 L 114.78906 -168.92578 z M 130.24219 -168.54492 L 129.77734 -168.53906 L 129.7832 -168.07422 L 129.78516 -167.60938 L 130.25 -167.61328 L 130.24805 -168.07812 L 130.24219 -168.54492 z M 113.72656 -168.02148 L 113.01758 -167.41992 L 113.31836 -167.06445 L 114.02734 -167.66797 L 113.72656 -168.02148 z M 129.78906 -167.14648 L 129.79102 -166.33789 L 129.79102 -166.2168 L 130.25586 -166.2168 L 130.25586 -166.33789 L 130.25391 -167.14648 L 129.78906 -167.14648 z M 112.66406 -167.11914 L 111.95508 -166.51562 L 112.25586 -166.16211 L 112.96484 -166.76367 L 112.66406 -167.11914 z M 111.64648 -165.98047 L 111.63867 -165.05078 L 112.10547 -165.04688 L 112.11133 -165.97656 L 111.64648 -165.98047 z M 129.79102 -165.75195 L 129.79102 -165.4707 L 129.78711 -164.82227 L 130.25195 -164.82031 L 130.25586 -165.46875 L 130.25586 -165.75195 L 129.79102 -165.75195 z M 111.63672 -164.58398 L 111.62891 -163.6543 L 112.09375 -163.65039 L 112.10156 -164.58203 L 111.63672 -164.58398 z M 129.7832 -164.35938 L 129.77734 -163.73828 L 129.77344 -163.42969 L 130.23828 -163.42383 L 130.24219 -163.73242 L 130.24805 -164.35352 L 129.7832 -164.35938 z M 111.625 -163.18945 L 111.61719 -162.25977 L 112.08203 -162.25586 L 112.08984 -163.18555 L 111.625 -163.18945 z M 129.76562 -162.96484 L 129.76562 -162.87305 L 129.75 -162.03711 L 130.21484 -162.02734 L 130.23047 -162.86523 L 130.23047 -162.95898 L 129.76562 -162.96484 z M 111.61328 -161.79492 L 111.60547 -160.86523 L 112.07031 -160.86133 L 112.07812 -161.79102 L 111.61328 -161.79492 z M 129.73828 -161.57227 L 129.72852 -161.14844 L 129.71484 -160.64453 L 130.17969 -160.63086 L 130.19336 -161.13672 L 130.20312 -161.5625 L 129.73828 -161.57227 z M 111.60156 -160.40039 L 111.5957 -159.4707 L 112.06055 -159.4668 L 112.06641 -160.39648 L 111.60156 -160.40039 z M 129.70312 -160.17969 L 129.67773 -159.42773 L 129.67188 -159.25195 L 130.13672 -159.23438 L 130.14258 -159.41211 L 130.16602 -160.16602 L 129.70312 -160.17969 z M 111.5918 -159.00586 L 111.58398 -158.07422 L 112.04883 -158.07227 L 112.05664 -159.00195 L 111.5918 -159.00586 z M 129.65625 -158.78711 L 129.64844 -158.57031 L 129.61914 -157.85742 L 130.08398 -157.83984 L 130.11328 -158.55273 L 130.12109 -158.76953 L 129.65625 -158.78711 z M 111.58008 -157.60938 L 111.57227 -156.67969 L 112.03711 -156.67578 L 112.04492 -157.60547 L 111.58008 -157.60938 z M 129.59961 -157.39453 L 129.57422 -156.85938 L 129.55664 -156.4668 L 130.01953 -156.44336 L 130.03906 -156.83789 L 130.0625 -157.375 L 129.59961 -157.39453 z M 111.56836 -156.21484 L 111.56055 -155.28516 L 112.02539 -155.28125 L 112.0332 -156.21094 L 111.56836 -156.21484 z M 129.5332 -156.00391 L 129.48828 -155.1582 L 129.48242 -155.07617 L 129.94727 -155.04883 L 129.95117 -155.13281 L 129.99805 -155.97852 L 129.5332 -156.00391 z M 111.55664 -154.82031 L 111.55078 -153.89062 L 112.01562 -153.88672 L 112.02148 -154.81641 L 111.55664 -154.82031 z M 129.45703 -154.61133 L 129.43945 -154.31055 L 129.40039 -153.68359 L 129.86328 -153.65625 L 129.90234 -154.2832 L 129.91992 -154.58398 L 129.45703 -154.61133 z M 111.54688 -153.42578 L 111.53906 -152.49609 L 112.00391 -152.49219 L 112.01172 -153.42188 L 111.54688 -153.42578 z M 129.36914 -153.2207 L 129.33008 -152.62305 L 129.30664 -152.29492 L 129.76953 -152.26172 L 129.79297 -152.5918 L 129.83398 -153.18945 L 129.36914 -153.2207 z M 111.53516 -152.03125 L 111.52734 -151.09961 L 111.99219 -151.0957 L 112 -152.02734 L 111.53516 -152.03125 z M 129.27344 -151.83008 C 129.25148 -151.52159 129.22803 -151.21449 129.20312 -150.90625 L 129.66602 -150.86719 C 129.69104 -151.17693 129.71426 -151.48693 129.73633 -151.79688 L 129.27344 -151.83008 z M 111.52344 -150.63477 L 111.51562 -149.70508 L 111.98047 -149.70117 L 111.98828 -150.63086 L 111.52344 -150.63477 z M 129.16602 -150.44141 L 129.13867 -150.11328 L 129.08789 -149.51562 L 129.55078 -149.47656 L 129.60156 -150.07617 L 129.62891 -150.4043 L 129.16602 -150.44141 z M 111.51172 -149.24023 L 111.50586 -148.31055 L 111.9707 -148.30664 L 111.97852 -149.23633 L 111.51172 -149.24023 z M 129.04688 -149.05469 L 128.99414 -148.45703 L 128.96289 -148.12891 L 129.42578 -148.08594 L 129.45703 -148.41406 L 129.50977 -149.01172 L 129.04688 -149.05469 z M 111.50195 -147.8457 L 111.49414 -146.91602 L 111.95898 -146.91211 L 111.9668 -147.8418 L 111.50195 -147.8457 z M 128.91992 -147.66602 C 128.89087 -147.3582 128.86027 -147.04977 128.82812 -146.74219 L 129.28906 -146.69531 C 129.32136 -147.00437 129.35361 -147.31361 129.38281 -147.62305 L 128.91992 -147.66602 z M 111.49023 -146.45117 L 111.48242 -145.52148 L 111.94727 -145.51758 L 111.95508 -146.44727 L 111.49023 -146.45117 z M 128.7793 -146.28125 L 128.75 -145.99609 L 128.67969 -145.35742 L 129.14258 -145.30664 L 129.21094 -145.94727 L 129.24219 -146.23242 L 128.7793 -146.28125 z M 111.47852 -145.05469 L 111.4707 -144.125 L 111.9375 -144.12109 L 111.94336 -145.05273 L 111.47852 -145.05469 z M 128.62891 -144.89648 L 128.56836 -144.37305 L 128.52148 -143.97266 L 128.98242 -143.91797 L 129.03125 -144.32031 L 129.08984 -144.84375 L 128.62891 -144.89648 z M 111.46875 -143.66016 L 111.46094 -142.73047 L 111.92578 -142.72656 L 111.93359 -143.65625 L 111.46875 -143.66016 z M 128.4668 -143.51172 L 128.37305 -142.76758 L 128.35156 -142.5918 L 128.8125 -142.53125 L 128.83594 -142.71094 L 128.92773 -143.45508 L 128.4668 -143.51172 z M 111.45703 -142.26562 L 111.44922 -141.33594 L 111.91406 -141.33203 L 111.92188 -142.26172 L 111.45703 -142.26562 z M 128.29102 -142.12891 L 128.27148 -141.97266 L 128.16797 -141.20898 L 128.62891 -141.14648 L 128.73242 -141.91211 L 128.75195 -142.07031 L 128.29102 -142.12891 z M 111.44531 -140.87109 L 111.4375 -139.94141 L 111.90234 -139.9375 L 111.91016 -140.86719 L 111.44531 -140.87109 z M 128.10547 -140.75 L 128.05469 -140.39258 L 127.97461 -139.83008 L 128.43359 -139.76367 L 128.51562 -140.32812 L 128.56641 -140.68555 L 128.10547 -140.75 z M 111.43359 -139.47656 L 111.42578 -138.54492 L 111.89258 -138.54297 L 111.89844 -139.47266 L 111.43359 -139.47656 z M 127.90625 -139.37109 L 127.82617 -138.83398 L 127.76562 -138.45312 L 128.22656 -138.38086 L 128.28516 -138.76367 L 128.36523 -139.30273 L 127.90625 -139.37109 z M 111.42383 -138.08008 L 111.41602 -137.15039 L 111.88086 -137.14648 L 111.88867 -138.07617 L 111.42383 -138.08008 z M 127.69531 -137.99414 L 127.58203 -137.29297 L 127.54688 -137.07812 L 128.00391 -137.00195 L 128.04102 -137.21875 L 128.1543 -137.92188 L 127.69531 -137.99414 z M 111.41211 -136.68555 L 111.4043 -135.75586 L 111.86914 -135.75195 L 111.87695 -136.68164 L 111.41211 -136.68555 z M 127.46875 -136.61914 C 127.41811 -136.31421 127.36686 -136.00925 127.3125 -135.70508 L 127.76953 -135.62305 C 127.82425 -135.9292 127.8768 -136.23627 127.92773 -136.54297 L 127.46875 -136.61914 z M 111.40039 -135.29102 L 111.39258 -134.36133 L 111.85742 -134.35742 L 111.86523 -135.28711 L 111.40039 -135.29102 z M 127.23047 -135.24805 L 127.19141 -135.02344 L 127.06445 -134.33398 L 127.52148 -134.25 L 127.64844 -134.94141 L 127.6875 -135.16602 L 127.23047 -135.24805 z M 111.38867 -133.89648 L 111.38281 -132.9668 L 111.84766 -132.96289 L 111.85352 -133.89258 L 111.38867 -133.89648 z M 126.97656 -133.87891 L 126.91211 -133.53906 L 126.80078 -132.9668 L 127.25586 -132.87695 L 127.36914 -133.45117 L 127.43359 -133.79102 L 126.97656 -133.87891 z M 126.70898 -132.51367 L 126.62109 -132.07617 L 126.52148 -131.60352 L 126.97656 -131.50781 L 127.07617 -131.98242 L 127.16406 -132.41992 L 126.70898 -132.51367 z M 111.37891 -132.5 L 111.37109 -131.57031 L 111.83594 -131.56641 L 111.84375 -132.49805 L 111.37891 -132.5 z M 126.42578 -131.15039 L 126.31641 -130.64062 L 126.22656 -130.24219 L 126.68164 -130.14258 L 126.76953 -130.54102 L 126.88086 -131.05273 L 126.42578 -131.15039 z M 111.36719 -131.10547 L 111.35938 -130.17578 L 111.82422 -130.17188 L 111.83203 -131.10156 L 111.36719 -131.10547 z M 126.125 -129.79102 L 125.99805 -129.23047 L 125.91602 -128.88672 L 126.36914 -128.7793 L 126.44922 -129.125 L 126.57812 -129.6875 L 126.125 -129.79102 z M 111.35547 -129.71094 L 111.34766 -128.78125 L 111.8125 -128.77734 L 111.82031 -129.70703 L 111.35547 -129.71094 z M 125.80859 -128.43555 L 125.66602 -127.84766 L 125.58594 -127.5332 L 126.03711 -127.41992 L 126.11719 -127.73633 L 126.25977 -128.32617 L 125.80859 -128.43555 z M 111.34375 -128.31641 L 111.33789 -127.38672 L 111.80273 -127.38281 L 111.80859 -128.3125 L 111.34375 -128.31641 z M 125.47266 -127.08398 L 125.32227 -126.50195 L 125.23828 -126.18555 L 125.6875 -126.06641 L 125.77344 -126.38477 L 125.92383 -126.96875 L 125.47266 -127.08398 z M 111.33398 -126.92188 L 111.32617 -125.99023 L 111.79102 -125.98828 L 111.79883 -126.91797 L 111.33398 -126.92188 z M 125.11914 -125.73828 L 124.96875 -125.19531 L 124.87109 -124.84375 L 125.31836 -124.71875 L 125.41797 -125.07031 L 125.56641 -125.61523 L 125.11914 -125.73828 z M 111.32227 -125.52539 L 111.31445 -124.5957 L 111.7793 -124.5918 L 111.78711 -125.52148 L 111.32227 -125.52539 z M 124.74414 -124.39844 L 124.60547 -123.92578 L 124.48047 -123.50781 L 124.92773 -123.375 L 125.05273 -123.79492 L 125.18945 -124.26953 L 124.74414 -124.39844 z M 111.31055 -124.13086 L 111.30273 -123.20117 L 111.76758 -123.19727 L 111.77539 -124.12695 L 111.31055 -124.13086 z M 124.3457 -123.06641 L 124.23242 -122.69727 L 124.06836 -122.17969 L 124.51172 -122.03906 L 124.67773 -122.55859 L 124.79102 -122.92773 L 124.3457 -123.06641 z M 111.29883 -122.73633 L 111.29297 -121.80664 L 111.75781 -121.80273 L 111.76562 -122.73242 L 111.29883 -122.73633 z M 123.92578 -121.73828 C 123.8304 -121.44433 123.73378 -121.15208 123.63281 -120.86133 L 124.07227 -120.70898 C 124.17469 -121.00393 124.27317 -121.29993 124.36914 -121.5957 L 123.92578 -121.73828 z M 111.28906 -121.3418 L 111.28125 -120.41211 L 111.74609 -120.4082 L 111.75391 -121.33789 L 111.28906 -121.3418 z M 123.48047 -120.42188 C 123.38016 -120.13099 123.27503 -119.84055 123.16797 -119.55078 L 123.60352 -119.39062 C 123.71132 -119.68242 123.81811 -119.97429 123.91992 -120.26953 L 123.48047 -120.42188 z M 111.27734 -119.94727 L 111.26953 -119.01562 L 111.73438 -119.01172 L 111.74219 -119.94336 L 111.27734 -119.94727 z M 123.00781 -119.11719 L 122.85352 -118.70898 L 122.67383 -118.25 L 123.10742 -118.08203 L 123.28711 -118.54297 L 123.44141 -118.95312 L 123.00781 -119.11719 z M 111.26562 -118.55078 L 111.25781 -117.62109 L 111.72461 -117.61719 L 111.73047 -118.54688 L 111.26562 -118.55078 z M 122.50391 -117.82031 C 122.39 -117.53428 122.27195 -117.24976 122.15039 -116.9668 L 122.57617 -116.7832 C 122.69934 -117.0699 122.82007 -117.35846 122.93555 -117.64844 L 122.50391 -117.82031 z M 111.25586 -117.15625 L 111.24805 -116.22656 L 111.71289 -116.22266 L 111.7207 -117.15234 L 111.25586 -117.15625 z M 121.9668 -116.54102 L 121.80273 -116.16992 L 121.58789 -115.69531 L 122.01172 -115.50391 L 122.22852 -115.98047 L 122.39258 -116.35352 L 121.9668 -116.54102 z M 111.24414 -115.76172 L 111.23633 -114.83203 L 111.70117 -114.82812 L 111.70898 -115.75781 L 111.24414 -115.76172 z M 121.39258 -115.27539 C 121.26328 -114.99789 121.12706 -114.72368 120.98828 -114.44727 L 121.40234 -114.23828 C 121.54173 -114.51591 121.6819 -114.79559 121.81445 -115.08008 L 121.39258 -115.27539 z M 111.23242 -114.36719 L 111.22461 -113.4375 L 111.68945 -113.43359 L 111.69727 -114.36328 L 111.23242 -114.36719 z M 120.77734 -114.0332 C 120.63798 -113.76018 120.49155 -113.4897 120.3418 -113.2207 L 120.74805 -112.99414 C 120.89987 -113.26684 121.04889 -113.54307 121.19141 -113.82227 L 120.77734 -114.0332 z M 111.2207 -112.9707 L 111.21289 -112.04102 L 111.67969 -112.03711 L 111.68555 -112.96875 L 111.2207 -112.9707 z M 120.11523 -112.81641 C 119.96485 -112.5497 119.80641 -112.28675 119.64453 -112.02539 L 120.04102 -111.78125 C 120.2056 -112.04696 120.3654 -112.31453 120.51953 -112.58789 L 120.11523 -112.81641 z M 119.39844 -111.63281 C 119.23637 -111.37486 119.06425 -111.12072 118.88867 -110.86719 L 119.27148 -110.60352 C 119.44885 -110.85963 119.62519 -111.11773 119.79297 -111.38477 L 119.39844 -111.63281 z M 111.21094 -111.57617 L 111.20312 -110.64648 L 111.66797 -110.64258 L 111.67578 -111.57227 L 111.21094 -111.57617 z M 118.62305 -110.49414 C 118.44044 -110.24507 118.25818 -109.99815 118.06641 -109.76367 L 118.42578 -109.4707 C 118.62654 -109.71618 118.81414 -109.96791 118.99805 -110.21875 L 118.62305 -110.49414 z M 111.19922 -110.18164 L 111.19141 -109.25195 L 111.65625 -109.24805 L 111.66406 -110.17773 L 111.19922 -110.18164 z M 117.77148 -109.40625 C 117.57743 -109.17303 117.37325 -108.94818 117.16211 -108.72656 L 117.49805 -108.4043 C 117.71448 -108.63147 117.92642 -108.86603 118.12891 -109.10938 L 117.77148 -109.40625 z M 111.1875 -108.78711 L 111.17969 -107.85742 L 111.64453 -107.85352 L 111.65234 -108.7832 L 111.1875 -108.78711 z M 116.83984 -108.40039 C 116.62472 -108.18685 116.39893 -107.98153 116.16602 -107.78711 L 116.46484 -107.43164 C 116.70779 -107.63444 116.94119 -107.84715 117.16602 -108.07031 L 116.83984 -108.40039 z M 115.8125 -107.50195 C 115.57238 -107.3176 115.32296 -107.14439 115.06641 -106.98633 L 115.31055 -106.5918 C 115.58186 -106.75895 115.84408 -106.93963 116.0957 -107.13281 L 115.8125 -107.50195 z M 111.17578 -107.39258 L 111.16992 -106.46094 L 111.63477 -106.45898 L 111.64062 -107.38867 L 111.17578 -107.39258 z M 114.67578 -106.76172 C 114.41159 -106.6187 114.13869 -106.49237 113.85938 -106.38672 L 114.02344 -105.95117 C 114.32403 -106.06486 114.61554 -106.19947 114.89648 -106.35156 L 114.67578 -106.76172 z M 113.43555 -106.24219 C 113.15017 -106.1568 112.8571 -106.0931 112.5625 -106.05469 L 112.62305 -105.59375 C 112.94327 -105.6355 113.25978 -105.70454 113.56836 -105.79688 L 113.43555 -106.24219 z M 111.41602 -106.03125 L 111.44922 -105.99414 L 111.16602 -105.99609 L 111.16211 -105.58594 L 111.375 -105.56836 C 111.62848 -105.5461 111.88445 -105.5381 112.14062 -105.55078 L 112.11914 -106.01562 C 111.88621 -106.00409 111.65028 -106.01068 111.41602 -106.03125 z "
       style="color:#000000;font-style:normal;font-variant:normal;font-weight:normal;font-stretch:normal;font-size:medium;line-height:normal;font-family:sans-serif;font-variant-ligatures:normal;font-variant-position:normal;font-variant-caps:normal;font-variant-numeric:normal;font-variant-alternates:normal;font-variant-east-asian:normal;font-feature-settings:normal;font-variation-settings:normal;text-indent:0;text-align:start;text-decoration:none;text-decoration-line:none;text-decoration-style:solid;text-decoration-color:#000000;letter-spacing:normal;word-spacing:normal;text-transform:none;writing-mode:lr-tb;direction:ltr;text-orientation:mixed;dominant-baseline:auto;baseline-shift:baseline;text-anchor:start;white-space:normal;shape-padding:0;shape-margin:0;inline-size:0;clip-rule:nonzero;display:inline;overflow:visible;visibility:visible;isolation:auto;mix-blend-mode:normal;color-interpolation:sRGB;color-interpolation-filters:linearRGB;solid-color:#000000;solid-opacity:1;vector-effect:none;fill:#e6e6e6;fill-opacity:1;fill-rule:nonzero;stroke:none;stroke-width:0.465;stroke-linecap:butt;stroke-linejoin:miter;stroke-miterlimit:4;stroke-dasharray:0.93, 0.46500000000000002;stroke-dashoffset:0;stroke-opacity:1;anonymous:0;color-rendering:auto;image-rendering:auto;shape-rendering:auto;text-rendering:auto;enable-background:accumulate;stop-color:#000000;stop-opacity:1;opacity:1" />
    <circle
       r="4.3810873"
       cy="121.85914"
       cx="124.45535"
       id="path1533"
       style="fill:#ffff00;stroke:none;stroke-width:0.465;stroke-miterlimit:4;stroke-dasharray:0.929998, 0.46500000000000002;stroke-dashoffset:0" />
    <path
       inkscape:transform-center-y="-0.47351852"
       inkscape:transform-center-x="0.61359613"
       d="m 178.81329,95.085834 -7.12031,-2.253658 -5.89312,4.587908 -0.0569,-7.468235 -6.18444,-4.18695 7.08512,-2.361966 2.07093,-7.175585 4.43579,6.00846 7.46434,-0.247805 -4.34366,6.075398 z"
       inkscape:randomized="0"
       inkscape:rounded="0"
       inkscape:flatsided="false"
       sodipodi:arg2="1.3933114"
       sodipodi:arg1="0.76499283"
       sodipodi:r2="5.6232796"
       sodipodi:r1="11.246559"
       sodipodi:cy="87.297232"
       sodipodi:cx="170.70017"
       sodipodi:sides="5"
       id="path1535"
       style="fill:#ffff00;stroke:none;stroke-width:0.465;stroke-miterlimit:4;stroke-dasharray:0.93, 0.465;stroke-dashoffset:0"
       sodipodi:type="star" />
    <ellipse
       ry="59.767498"
       rx="59.768002"
       cy="165.60081"
       cx="110.41681"
       id="path1527"
       style="fill:none;stroke:#cccccc;stroke-width:0.465;stroke-miterlimit:4;stroke-dasharray:none" />
    <path
       sodipodi:nodetypes="cc"
       inkscape:connector-curvature="0"
       id="path1537"
       d="M 128.18738,119.4252 165.74292,89.951847"
       style="fill:#ffffff;stroke:#ffff00;stroke-width:0.665;stroke-linecap:butt;stroke-linejoin:miter;stroke-opacity:1;stroke-miterlimit:4;stroke-dasharray:none" />
    <path
       inkscape:connector-curvature="0"
       id="path1567"
       d="M 111.95508,166.51562 165.74292,89.951849"
       style="fill:none;stroke:#ff0000;stroke-width:0.465;stroke-linecap:butt;stroke-linejoin:miter;stroke-opacity:1;stroke-miterlimit:4;stroke-dasharray:none" />
  </g>
</svg>
