<?xml version="1.0" encoding="UTF-8" standalone="no"?>
<svg
   sodipodi:docname="earth.svg"
   inkscape:version="1.1.1 (3bf5ae0d25, 2021-09-20)"
   id="svg964"
   version="1.1"
   viewBox="0 0 130.19835 149.37346"
   height="149.37346mm"
   width="130.19835mm"
   xmlns:inkscape="http://www.inkscape.org/namespaces/inkscape"
   xmlns:sodipodi="http://sodipodi.sourceforge.net/DTD/sodipodi-0.dtd"
   xmlns="http://www.w3.org/2000/svg"
   xmlns:svg="http://www.w3.org/2000/svg"
   xmlns:rdf="http://www.w3.org/1999/02/22-rdf-syntax-ns#"
   xmlns:cc="http://creativecommons.org/ns#"
   xmlns:dc="http://purl.org/dc/elements/1.1/">
  <defs
     id="defs958" />
  <sodipodi:namedview
     fit-margin-bottom="0"
     fit-margin-right="0"
     fit-margin-left="0"
     fit-margin-top="0"
     inkscape:window-maximized="1"
     inkscape:window-y="27"
     inkscape:window-x="68"
     inkscape:window-height="1136"
     inkscape:window-width="1852"
     showgrid="false"
     inkscape:document-rotation="0"
     inkscape:current-layer="layer1"
     inkscape:document-units="mm"
     inkscape:cy="230.33124"
     inkscape:cx="349.80628"
     inkscape:zoom="1.6823597"
     inkscape:pageshadow="2"
     inkscape:pageopacity="0.0"
     borderopacity="1.0"
     bordercolor="#666666"
     pagecolor="#ffffff"
     id="base"
     inkscape:pagecheckerboard="0" />
  <metadata
     id="metadata961">
    <rdf:RDF>
      <cc:Work
         rdf:about="">
        <dc:format>image/svg+xml</dc:format>
        <dc:type
           rdf:resource="http://purl.org/dc/dcmitype/StillImage" />
      </cc:Work>
    </rdf:RDF>
  </metadata>
  <g
     transform="translate(-50.416308,-76.227348)"
     id="layer1"
     inkscape:groupmode="layer"
     inkscape:label="Layer 1">
    <path
       inkscape:connector-curvature="0"
       id="path1567"
       d="M 111.95508,166.51562 170.80657,86.849741"
       style="fill:none;stroke:#ff0000;stroke-width:0.465;stroke-linecap:butt;stroke-linejoin:miter;stroke-miterlimit:4;stroke-dasharray:none;stroke-opacity:1"
       sodipodi:nodetypes="cc" />
    <ellipse
       id="path1529"
       style="fill:none;stroke:#cccccc;stroke-width:0.465;stroke-miterlimit:4;stroke-dasharray:0.93, 0.465;stroke-dashoffset:0"
       ry="15.119047"
       rx="59.720234"
       cy="167.06549"
       cx="110.36904" />
    <path
       id="path1565"
       d="m 129.30859,181.34903 -0.34375,-0.29297 0.29688,-0.34961 c 0.42959,0.48242 0,0 0.42959,0.48242 l -0.23047,-0.0176 z m -0.69726,-0.59375 -0.70899,-0.60157 0.30078,-0.35547 0.70899,0.60352 z m -1.06445,-0.90235 -0.70704,-0.60351 0.30078,-0.35352 0.70899,0.60156 z m -1.0625,-0.90425 -0.70899,-0.60157 0.30078,-0.35547 0.70899,0.60352 z m -1.0625,-0.90235 -0.70899,-0.60351 0.30078,-0.35352 0.70899,0.60156 z m -1.06446,-0.9043 -0.70703,-0.60156 0.30078,-0.35351 0.70899,0.60156 z m -1.0625,-0.90234 -0.70898,-0.60156 0.30078,-0.35547 0.70898,0.60156 z m -1.0625,-0.90234 -0.70898,-0.60352 0.30078,-0.35351 0.70898,0.60156 z m -1.06445,-0.9043 -0.70703,-0.60156 0.30078,-0.35547 0.70898,0.60351 z m -1.0625,-0.90234 -0.70899,-0.60352 0.30079,-0.35351 0.70898,0.60156 z m -1.0625,-0.9043 -0.70899,-0.60156 0.30079,-0.35547 0.70898,0.60351 z m -1.06445,-0.90234 -0.70704,-0.60157 0.30079,-0.35547 0.70898,0.60157 z m -1.0625,-0.9043 -0.70899,-0.60156 0.30078,-0.35352 0.70899,0.60156 z m -1.0625,-0.90235 -0.70899,-0.60156 0.30078,-0.35547 0.70899,0.60352 z m -1.06446,-0.90234 -0.70703,-0.60351 0.30078,-0.35352 0.70899,0.60156 z m -1.0625,-0.9043 -0.70898,-0.60156 0.30078,-0.35547 0.70898,0.60352 z m -1.0625,-0.9023 -0.70898,-0.60352 0.30078,-0.35351 0.70898,0.60156 z m -1.01758,-1.13867 -0.008,-0.92969 0.4668,-0.004 0.006,0.92968 z m -0.01,-1.39649 -0.008,-0.92968 0.46484,-0.004 0.008,0.93164 z m -0.0117,-1.39453 -0.008,-0.92968 0.46484,-0.004 0.008,0.92969 z m -0.0117,-1.39453 -0.008,-0.92969 0.46484,-0.004 0.008,0.92969 z m -0.0117,-1.39453 -0.006,-0.92969 0.46485,-0.004 0.006,0.92968 z m -0.01,-1.39453 -0.008,-0.93164 0.46485,-0.002 0.008,0.92968 z m -0.0117,-1.39648 -0.008,-0.92969 0.46484,-0.004 0.008,0.92969 z m -0.0117,-1.39454 -0.008,-0.92968 0.46484,-0.004 0.008,0.92969 z m -0.0117,-1.39453 -0.006,-0.92969 0.46484,-0.004 0.006,0.92969 z m -0.01,-1.39453 -0.008,-0.92969 0.46485,-0.004 0.008,0.92969 z m -0.0117,-1.39453 -0.008,-0.93164 0.46485,-0.004 0.008,0.93164 z m -0.0117,-1.39648 -0.008,-0.92969 0.46485,-0.004 0.008,0.92969 z m -0.0117,-1.39454 -0.006,-0.92968 0.46484,-0.004 0.008,0.92969 z m -0.01,-1.39453 -0.008,-0.92968 0.46484,-0.004 0.008,0.92969 z m -0.0117,-1.39453 -0.008,-0.92969 0.46485,-0.004 0.008,0.92969 z m -0.0117,-1.39648 -0.008,-0.92969 0.4668,-0.004 0.006,0.93164 z m -0.01,-1.39453 -0.008,-0.92969 0.46484,-0.004 0.008,0.92969 z m -0.0117,-1.39454 -0.008,-0.92968 0.46484,-0.004 0.008,0.92969 z m -0.0117,-1.39453 -0.008,-0.92968 0.46484,-0.004 0.008,0.92969 z m -0.0117,-1.39453 -0.008,-0.93164 0.4668,-0.002 0.006,0.92969 z m -0.01,-1.39648 -0.008,-0.92969 0.46484,-0.004 0.008,0.92969 z m -0.0117,-1.39449 -0.008,-0.92969 0.46484,-0.004 0.008,0.92969 z m -0.0117,-1.39452 -0.008,-0.92969 0.46484,-0.004 0.008,0.92969 z m -0.0117,-1.39457 -0.006,-0.92968 0.46485,-0.004 0.006,0.92969 z m -0.01,-1.39654 -0.008,-0.92969 0.46485,-0.004 0.008,0.93164 z m -0.0117,-1.39451 -0.008,-0.92969 0.46484,-0.004 0.008,0.92968 z m -0.0117,-1.39455 -0.008,-0.92969 0.46484,-0.004 0.008,0.92969 z m -0.0117,-1.39453 -0.006,-0.92969 0.46484,-0.004 0.006,0.92969 z m -0.01,-1.39453 -0.008,-0.93165 0.46485,-0.002 0.008,0.92969 z m -0.0117,-1.39649 -0.008,-0.92969 0.46485,-0.004 0.008,0.92968 z m -0.0117,-1.39453 -0.008,-0.92969 0.46485,-0.004 0.008,0.92968 z m -0.0117,-1.39453 -0.006,-0.92969 0.46484,-0.004 0.008,0.92969 z m -0.01,-1.39453 -0.008,-0.92969 0.46484,-0.004 0.008,0.92969 z m -0.0117,-1.39453 -0.008,-0.93165 0.46485,-0.004 0.008,0.93164 z m -0.0117,-1.39649 -0.008,-0.92969 0.4668,-0.004 0.006,0.92969 z m -0.01,-1.39453 -0.008,-0.92969 0.46484,-0.004 0.008,0.92968 z m -0.0117,-1.39453 -0.008,-0.92969 0.46484,-0.004 0.008,0.92969 z m -0.0117,-1.39453 -0.008,-0.92969 0.46484,-0.004 0.008,0.92969 z m -0.0117,-1.39649 -0.008,-0.92968 0.4668,-0.004 0.006,0.93164 z m -0.01,-1.39449 -0.008,-0.92969 0.46485,-0.004 0.008,0.92969 z m -0.0117,-1.39453 -0.008,-0.92969 0.46484,-0.004 0.008,0.92968 z m -0.0117,-1.39453 -0.008,-0.92969 0.46484,-0.004 0.008,0.92968 z m -0.0117,-1.39453 -0.006,-0.93164 0.46485,-0.002 0.006,0.92969 z m 0.24024,-1.36133 0.0332,-0.0371 -0.2832,0.002 -0.004,-0.41015 0.21289,-0.0176 c 0.99399,-0.10279 0.93285,0.40309 0.041,0.46284 z"
       style="color:#000000;font-style:normal;font-variant:normal;font-weight:normal;font-stretch:normal;font-size:medium;line-height:normal;font-family:sans-serif;font-variant-ligatures:normal;font-variant-position:normal;font-variant-caps:normal;font-variant-numeric:normal;font-variant-alternates:normal;font-variant-east-asian:normal;font-feature-settings:normal;font-variation-settings:normal;text-indent:0;text-align:start;text-decoration:none;text-decoration-line:none;text-decoration-style:solid;text-decoration-color:#000000;letter-spacing:normal;word-spacing:normal;text-transform:none;writing-mode:lr-tb;direction:ltr;text-orientation:mixed;dominant-baseline:auto;baseline-shift:baseline;text-anchor:start;white-space:normal;shape-padding:0;shape-margin:0;inline-size:0;clip-rule:nonzero;display:inline;overflow:visible;visibility:visible;opacity:1;isolation:auto;mix-blend-mode:normal;color-interpolation:sRGB;color-interpolation-filters:linearRGB;solid-color:#000000;solid-opacity:1;vector-effect:none;fill:#cccccc;fill-opacity:1;fill-rule:nonzero;stroke:none;stroke-width:0.465;stroke-linecap:butt;stroke-linejoin:miter;stroke-miterlimit:4;stroke-dasharray:0.93, 0.465;stroke-dashoffset:0;stroke-opacity:1;color-rendering:auto;image-rendering:auto;shape-rendering:auto;text-rendering:auto;enable-background:accumulate;stop-color:#000000;stop-opacity:1"
       sodipodi:nodetypes="cccccccccccccccccccccccccccccccccccccccccccccccccccccccccccccccccccccccccccccccccccccccccccccccccccccccccccccccccccccccccccccccccccccccccccccccccccccccccccccccccccccccccccccccccccccccccccccccccccccccccccccccccccccccccccccccccccccccccccccccccccccccccccccccccccccccccccccccccccccccccccccccccccccccccccccccccccc" />
    <path
       style="fill:none;stroke:#cccccc;stroke-width:0.465;stroke-linecap:butt;stroke-linejoin:miter;stroke-miterlimit:4;stroke-dasharray:none;stroke-opacity:1"
       d="m 111.63263,106.01911 c 2.57422,-0.043 5.45684,0.60613 8.90628,6.73808 2.03708,3.62125 4.36794,9.77055 6.45382,19.22447 3.0077,13.63194 3.52055,22.93204 2.88199,49.14283"
       id="path8817"
       sodipodi:nodetypes="cssc" />
    <circle
       r="4.3810873"
       cy="121.85914"
       cx="124.45535"
       id="path1533"
       style="fill:#ffff00;stroke:none;stroke-width:0.465;stroke-miterlimit:4;stroke-dasharray:0.929998, 0.46500000000000002;stroke-dashoffset:0" />
    <path
       inkscape:transform-center-y="-0.47351852"
       inkscape:transform-center-x="0.61359613"
       d="m 178.81329,95.085834 -7.12031,-2.253658 -5.89312,4.587908 -0.0569,-7.468235 -6.18444,-4.18695 7.08512,-2.361966 2.07093,-7.175585 4.43579,6.00846 7.46434,-0.247805 -4.34366,6.075398 z"
       inkscape:randomized="0"
       inkscape:rounded="0"
       inkscape:flatsided="false"
       sodipodi:arg2="1.3933114"
       sodipodi:arg1="0.76499283"
       sodipodi:r2="5.6232796"
       sodipodi:r1="11.246559"
       sodipodi:cy="87.297232"
       sodipodi:cx="170.70017"
       sodipodi:sides="5"
       id="path1535"
       style="fill:#ffff00;stroke:none;stroke-width:0.465;stroke-miterlimit:4;stroke-dasharray:0.93, 0.465;stroke-dashoffset:0"
       sodipodi:type="star" />
    <ellipse
       ry="59.767498"
       rx="59.768002"
       cy="165.60081"
       cx="110.41681"
       id="path1527"
       style="fill:none;stroke:#cccccc;stroke-width:0.465;stroke-miterlimit:4;stroke-dasharray:none" />
    <path
       sodipodi:nodetypes="cc"
       inkscape:connector-curvature="0"
       id="path1537"
       d="M 128.18738,119.4252 165.74292,89.951847"
       style="fill:#ffffff;stroke:#ffff00;stroke-width:0.665;stroke-linecap:butt;stroke-linejoin:miter;stroke-opacity:1;stroke-miterlimit:4;stroke-dasharray:none" />
    <path
       id="path1808"
       style="color:#000000;fill:#cccccc;stroke-width:3.77953;-inkscape-stroke:none"
       d="M 0.080078125 341.52734 L 0.029296875 342.35352 C -0.31426218 347.79237 2.247225 353.09372 7.2324219 358.04883 C 12.217619 363.0039 19.642399 367.68355 29.267578 372.03711 C 48.51794 380.74423 76.593233 388.13788 111.53125 393.37109 C 181.40729 403.83755 268.00771 404.0178 338.5332 393.83594 C 373.79593 388.74499 402.32739 381.45856 422.11719 372.83398 C 432.0121 368.52169 439.72059 363.88176 445.00781 358.95703 C 450.29507 354.03234 453.1875 348.76936 453.1875 343.32812 L 453.1875 342.44336 L 452.30859 342.44336 L 452 342.44336 L 452 345.01172 L 451.09766 345.01172 C 450.59401 349.26504 448.28663 353.49672 443.8125 357.66406 C 438.7471 362.38216 431.1932 366.96361 421.41602 371.22461 C 401.86161 379.74657 373.44182 387.01758 338.28125 392.09375 C 267.96015 402.24613 181.45931 402.07203 111.79102 391.63672 C 76.956856 386.41904 49.003923 379.03208 29.998047 370.43555 C 20.495109 366.13728 13.229743 361.52912 8.4726562 356.80078 C 4.5551597 352.90696 2.4999585 348.97211 2.0507812 345.01172 L 1.8300781 345.01172 L 1.8300781 341.53516 L 0.080078125 341.52734 z M 3.4316406 341.54102 L 3.4316406 343.30469 L 3.4355469 343.30469 L 3.4355469 341.54102 L 3.4316406 341.54102 z "
       transform="matrix(0.26458333,0,0,0.26458333,50.416308,76.227348)" />
  </g>
</svg>
