<?xml version="1.0" encoding="UTF-8" standalone="no"?>
<!-- Created with Serif DrawPlus 11, 0, 3, 23 (Feb 25, 14:12:55) (http://www.serif.com) -->

<svg
   version="1.1"
   width="424.806"
   height="616.60565"
   id="svg8379"
   sodipodi:docname="Magnetic_deflection_helical_path.svg"
   inkscape:version="1.1.1 (3bf5ae0d25, 2021-09-20)"
   xmlns:inkscape="http://www.inkscape.org/namespaces/inkscape"
   xmlns:sodipodi="http://sodipodi.sourceforge.net/DTD/sodipodi-0.dtd"
   xmlns="http://www.w3.org/2000/svg"
   xmlns:svg="http://www.w3.org/2000/svg">
  <defs
     id="defs8383" />
  <sodipodi:namedview
     id="namedview8381"
     bordercolor="#666666"
     borderopacity="1.0"
     inkscape:pageshadow="2"
     inkscape:pageopacity="0.0"
     inkscape:pagecheckerboard="0"
     showgrid="false"
     fit-margin-top="0"
     fit-margin-left="0"
     fit-margin-right="0"
     fit-margin-bottom="0"
     inkscape:zoom="1.1386803"
     inkscape:cx="8.3429914"
     inkscape:cy="383.3385"
     inkscape:window-width="3372"
     inkscape:window-height="1376"
     inkscape:window-x="68"
     inkscape:window-y="27"
     inkscape:window-maximized="1"
     inkscape:current-layer="svg8379" />
  <g
     id="g10459"
     transform="rotate(-150.12888,283.4951,334.09981)">
    <text
       id="dp_text012"
       xml:space="preserve"
       fill="#152ad4"
       font-family="Arial"
       font-size="31px"
       font-weight="700"
       x="205.67911"
       y="67.2397"> </text>
    <path
       id="dp_path052"
       fill="none"
       fill-rule="evenodd"
       stroke="#152ad4"
       stroke-width="1.33333"
       stroke-dasharray="8, 8"
       d="M 108.319,153.1227 283.38,277.9817" />
    <path
       id="dp_path053"
       fill="none"
       fill-rule="evenodd"
       stroke="#152ad4"
       stroke-width="1.33333"
       d="m 306.164,121.7617 c -50.761,-28.504 -128.868,17.365 -161.753,60 -38.352,49.721 -50.975,116.282 -14.247,144 34.813,26.272 69.153,8.606 92,-12 33.737,-30.43 55.2,-80.491 56,-136.8 0.8,-56.31 -11.2,-90.4 -53.6,-114.4" />
    <path
       id="dp_path054"
       fill="none"
       fill-rule="evenodd"
       stroke="#152ad4"
       stroke-width="1.33333"
       d="m 387.764,180.7657 c -50.761,-28.504 -128.868,17.365 -161.753,60 -38.352,49.721 -50.975,116.282 -14.247,144 34.813,26.272 69.153,8.606 92,-12 33.737,-30.43 55.2,-80.491 56,-136.8 0.8,-56.31 -11.2,-90.4 -53.6,-114.4" />
    <path
       id="dp_path065"
       fill="#ff0000"
       fill-rule="evenodd"
       stroke="#ff0000"
       stroke-width="1.33333"
       d="m 401.191,452.5197 17.806,4.466 -8.193,11.173 z" />
    <path
       id="dp_path066"
       fill="none"
       fill-rule="evenodd"
       stroke="#ff0000"
       stroke-width="1.33333"
       d="m 101.964,187.8417 144.727,102.705" />
    <path
       id="dp_path067"
       fill="none"
       fill-rule="evenodd"
       stroke="#ff0000"
       stroke-width="1.33333"
       d="M 109.964,144.2637 316.02,290.4907" />
    <path
       id="dp_path068"
       fill="none"
       fill-rule="evenodd"
       stroke="#ff0000"
       stroke-width="1.33333"
       d="m 164.621,123.8417 224.59,159.38" />
    <path
       id="dp_path069"
       fill="none"
       fill-rule="evenodd"
       stroke="#ff0000"
       stroke-width="1.33333"
       d="m 169.964,73.8417 227.773,161.638" />
    <path
       id="dp_path070"
       fill="none"
       fill-rule="evenodd"
       stroke="#ff0000"
       stroke-width="1.33333"
       d="m 65.964,214.8417 185.209,131.433" />
    <path
       id="dp_path071"
       fill="#ff0000"
       fill-rule="evenodd"
       stroke="#ff0000"
       stroke-width="1.33333"
       d="m 379.191,384.2397 17.806,4.466 -8.193,11.173 z" />
    <path
       id="dp_path072"
       fill="#ff0000"
       fill-rule="evenodd"
       stroke="#ff0000"
       stroke-width="1.33333"
       d="m 345.141,251.9467 17.807,4.465 -8.193,11.174 z" />
    <path
       id="dp_path073"
       fill="#ff0000"
       fill-rule="evenodd"
       stroke="#ff0000"
       stroke-width="1.33333"
       d="m 327.335,185.8057 17.806,4.465 -8.193,11.173 z" />
    <path
       id="dp_path075"
       fill="none"
       fill-rule="evenodd"
       stroke="#ff0000"
       stroke-width="1.33333"
       d="m 397.737,235.4797 262.227,186.09" />
    <path
       id="dp_path076"
       fill="none"
       fill-rule="evenodd"
       stroke="#ff0000"
       stroke-width="1.33333"
       d="m 389.211,283.2217 265.41,188.348" />
    <path
       id="dp_path077"
       fill="none"
       fill-rule="evenodd"
       stroke="#ff0000"
       stroke-width="1.33333"
       d="m 316.02,290.4907 283.944,201.501" />
    <path
       id="dp_path078"
       fill="none"
       fill-rule="evenodd"
       stroke="#ff0000"
       stroke-width="1.33333"
       d="m 246.691,290.5467 345.273,245.023" />
    <path
       id="dp_path079"
       fill="none"
       fill-rule="evenodd"
       stroke="#ff0000"
       stroke-width="1.33333"
       d="m 251.173,346.2747 304.791,216.295" />
    <path
       id="dp_path080"
       fill="#ff0000"
       fill-rule="evenodd"
       stroke="#ff0000"
       stroke-width="1.33333"
       d="m 361.212,322.5627 17.807,4.465 -8.194,11.174 z" />
    <path
       id="dp_path081"
       fill="none"
       fill-rule="evenodd"
       stroke="#152ad4"
       stroke-width="1.33333"
       d="m 561.364,484.5697 c 22.963,-40 28.237,-74.93 28.8,-107.174 0.563,-32.244 -13.637,-64.073 -39.2,-78.426 -50.761,-28.504 -128.868,17.365 -161.753,60 -38.352,49.721 -50.975,116.282 -14.247,144 34.813,26.272 69.153,8.606 92,-12 33.737,-30.43 55.2,-80.491 56,-136.8 0.8,-56.31 -11.2,-90.4 -53.6,-114.4" />
    <path
       id="dp_path082"
       fill="none"
       fill-rule="evenodd"
       stroke="#152ad4"
       stroke-width="1.33333"
       d="m 469.364,239.7697 c -50.761,-28.504 -128.868,17.365 -161.753,60 -38.352,49.721 -50.975,116.282 -14.247,144 34.813,26.272 69.153,8.606 92,-12 33.737,-30.43 55.2,-80.491 56,-136.8 0.8,-56.31 -11.2,-90.4 -53.6,-114.4" />
    <path
       id="dp_path083"
       fill="#152ad4"
       fill-rule="evenodd"
       stroke="#152ad4"
       stroke-width="1.33333"
       d="m 574.641,321.9917 14.69,11.01 -11.879,7.132 z" />
    <path
       id="dp_path084"
       fill="#152ad4"
       fill-rule="evenodd"
       stroke="#152ad4"
       stroke-width="1.33333"
       d="m 413.531,333.8397 10.921,-14.756 7.203,11.838 z" />
    <path
       id="dp_path085"
       fill="#152ad4"
       fill-rule="evenodd"
       stroke="#152ad4"
       stroke-width="1.33333"
       d="m 574.641,321.9917 14.69,11.01 -11.879,7.132 z" />
    <path
       id="dp_path086"
       fill="#152ad4"
       fill-rule="evenodd"
       stroke="#152ad4"
       stroke-width="1.33333"
       d="m 474.599,242.8797 17.518,5.483 -8.822,10.684 z" />
    <path
       id="dp_path087"
       fill="#152ad4"
       fill-rule="evenodd"
       stroke="#152ad4"
       stroke-width="1.33333"
       d="m 294.485,443.7697 -17.325,-6.067 9.176,-10.383 z" />
    <path
       id="dp_path088"
       fill="#152ad4"
       fill-rule="evenodd"
       stroke="#152ad4"
       stroke-width="1.33333"
       d="m 286.223,114.4537 17.784,-4.556 -1.882,13.728 z" />
    <path
       id="dp_path089"
       fill="#152ad4"
       fill-rule="evenodd"
       stroke="#152ad4"
       stroke-width="1.33333"
       d="m 117.439,311.2037 -14.976,-10.618 11.688,-7.443 z" />
    <path
       id="dp_path090"
       fill="none"
       fill-rule="evenodd"
       stroke="#152ad4"
       stroke-width="1.33333"
       stroke-dasharray="8, 8"
       d="m 283.381,277.9817 324.702,231.018" />
    <g
       id="dp_group092"
       transform="translate(-26.6,-58.4253)">
      <path
         id="dp_path093"
         fill="#ff0000"
         fill-rule="evenodd"
         d="m 458.907,480.265 10.318,16.778 3.426,-4.77 84.277,60.538 2.024,-2.818 -84.277,-60.537 3.425,-4.769 z" />
      <g
         id="dp_group094">
        <g
           id="dp_group095">
          <path
             id="dp_path096"
             fill="#ff0000"
             d="m 469.199,497.823 3.55,-4.947 84.278,60.537 2.528,-3.518 -84.278,-60.538 3.554,-4.945 -20.834,-4.8 11.202,18.211 0.053,-1.56 -9.436,-15.344 17.553,4.042 -3.297,4.594 84.277,60.537 -1.52,2.116 -84.277,-60.537 -3.3,4.592 z" />
        </g>
      </g>
    </g>
    <text
       id="dp_text051"
       xml:space="preserve"
       fill="#ff0000"
       font-family="'Times New Roman'"
       font-size="16px"
       font-weight="400"
       x="447.49301"
       y="409.36969"> </text>
    <g
       id="dp_group110"
       transform="translate(-26.6,-58.4253)">
      <path
         id="dp_path111"
         fill="#152ad4"
         fill-rule="evenodd"
         d="m 624.724,484.337 -13.74,8.127 5.037,3.019 -29.981,50.014 2.976,1.784 29.98,-50.014 5.037,3.018 z" />
      <g
         id="dp_group112">
        <g
           id="dp_group113">
          <path
             id="dp_path114"
             fill="#ff0000"
             d="m 610.333,492.463 5.232,3.133 -29.981,50.015 3.545,2.126 29.98,-50.014 5.232,3.136 0.742,-17.12 -14.75,8.724 1.302,0.002 12.73,-7.529 -0.64,14.776 -4.842,-2.901 -29.98,50.014 -2.407,-1.441 29.981,-50.015 -4.842,-2.904 z" />
        </g>
      </g>
    </g>
    <path
       id="dp_path117"
       fill="#fad44b"
       fill-rule="evenodd"
       stroke="#ff0000"
       stroke-width="1.33333"
       d="m 556.22,485.4577 c 13.003,3.748 20.505,17.328 16.757,30.33 -3.748,13.003 -17.328,20.506 -30.33,16.758 -13.003,-3.748 -20.506,-17.328 -16.758,-30.331 3.748,-13.003 17.328,-20.505 30.331,-16.757 z" />
  </g>
</svg>
